<svg xmlns="http://www.w3.org/2000/svg" viewBox="0 0 640 400" role="img"><title>Security at the vehicular edge</title><defs><linearGradient id="bg" x2="1" y2="1"><stop stop-color="#0d1b2a"/><stop offset="1" stop-color="#155166"/></linearGradient><pattern id="grid" width="32" height="32" patternUnits="userSpaceOnUse"><path d="M32 0H0V32" fill="none" stroke="#8bcbd5" stroke-opacity=".08"/></pattern></defs><rect width="640" height="400" fill="url(#bg)"/><rect width="640" height="400" fill="url(#grid)"/><circle cx="530" cy="65" r="160" fill="#61ddd0" opacity=".035"/><path d="M215 135C165 132 165 78 211 73C224 19 293 22 311 60C357 33 397 65 392 91C442 84 456 142 413 153H217Z" fill="#71ddd2" fill-opacity=".16" stroke="#71ddd2" stroke-width="2"/><path d="M110 280L310 155" stroke="#71ddd2" stroke-width="2" fill="none" stroke-dasharray="6 6" opacity=".65"/><g transform="translate(110 280) scale(1)"><rect x="-25" y="-13" width="50" height="26" rx="8" fill="#a7e5df"/><path d="M-13-10H12L18 0H-18Z" fill="#173d50"/><path d="M-15 8H15" stroke="#fff" stroke-width="2"/><circle cx="-16" cy="14" r="4" fill="#081926"/><circle cx="16" cy="14" r="4" fill="#081926"/></g><path d="M310 295L310 155" stroke="#71ddd2" stroke-width="2" fill="none" stroke-dasharray="6 6" opacity=".65"/><g transform="translate(310 295) scale(1)"><rect x="-25" y="-13" width="50" height="26" rx="8" fill="#a7e5df"/><path d="M-13-10H12L18 0H-18Z" fill="#173d50"/><path d="M-15 8H15" stroke="#fff" stroke-width="2"/><circle cx="-16" cy="14" r="4" fill="#081926"/><circle cx="16" cy="14" r="4" fill="#081926"/></g><path d="M520 280L310 155" stroke="#71ddd2" stroke-width="2" fill="none" stroke-dasharray="6 6" opacity=".65"/><g transform="translate(520 280) scale(1)"><rect x="-25" y="-13" width="50" height="26" rx="8" fill="#a7e5df"/><path d="M-13-10H12L18 0H-18Z" fill="#173d50"/><path d="M-15 8H15" stroke="#fff" stroke-width="2"/><circle cx="-16" cy="14" r="4" fill="#081926"/><circle cx="16" cy="14" r="4" fill="#081926"/></g><rect x="252" y="91" width="20" height="29" rx="4" fill="#c1eae4"/><rect x="287" y="91" width="20" height="29" rx="4" fill="#c1eae4"/><rect x="322" y="91" width="20" height="29" rx="4" fill="#c1eae4"/><rect x="357" y="91" width="20" height="29" rx="4" fill="#c1eae4"/><text x="32" y="365" fill="#c5e4ed" font-family="Arial,sans-serif" font-size="12" letter-spacing="2">ONBOARD COMPUTING · LOCAL DETECTION</text></svg>