<svg xmlns="http://www.w3.org/2000/svg" viewBox="0 0 640 400" role="img"><title>Intrusion detection across connected systems</title><defs><linearGradient id="bg" x2="1" y2="1"><stop stop-color="#0d1b2a"/><stop offset="1" stop-color="#155166"/></linearGradient><pattern id="grid" width="32" height="32" patternUnits="userSpaceOnUse"><path d="M32 0H0V32" fill="none" stroke="#8bcbd5" stroke-opacity=".08"/></pattern></defs><rect width="640" height="400" fill="url(#bg)"/><rect width="640" height="400" fill="url(#grid)"/><circle cx="530" cy="65" r="160" fill="#61ddd0" opacity=".035"/><rect x="222" y="100" width="192" height="154" rx="30" fill="#b9e2e0"/><rect x="242" y="126" width="152" height="72" rx="18" fill="#163b50"/><circle cx="278" cy="162" r="12" fill="#71ddd2"/><circle cx="359" cy="162" r="12" fill="#ffad6f"/><path d="M286 222h67M318 100V73" stroke="#163b50" stroke-width="6"/><circle cx="318" cy="66" r="16" fill="#71ddd2" opacity=".09"/><circle cx="318" cy="66" r="8" fill="#71ddd2"/><path d="M110 100L320 180" stroke="#65c8d2" stroke-width="2" fill="none" stroke-dasharray="" opacity=".65"/><circle cx="110" cy="100" r="21" fill="#71ddd2" opacity=".09"/><circle cx="110" cy="100" r="13" fill="#71ddd2"/><path d="M120 280L320 180" stroke="#65c8d2" stroke-width="2" fill="none" stroke-dasharray="" opacity=".65"/><circle cx="120" cy="280" r="21" fill="#71ddd2" opacity=".09"/><circle cx="120" cy="280" r="13" fill="#71ddd2"/><path d="M530 110L320 180" stroke="#65c8d2" stroke-width="2" fill="none" stroke-dasharray="" opacity=".65"/><circle cx="530" cy="110" r="21" fill="#71ddd2" opacity=".09"/><circle cx="530" cy="110" r="13" fill="#71ddd2"/><path d="M520 285L320 180" stroke="#65c8d2" stroke-width="2" fill="none" stroke-dasharray="" opacity=".65"/><circle cx="520" cy="285" r="21" fill="#71ddd2" opacity=".09"/><circle cx="520" cy="285" r="13" fill="#71ddd2"/><path d="M50 315h110l20-40 24 60 24-30h180l20-25 20 35 25-20h100" stroke="#ffad6f" stroke-width="2" fill="none"/><text x="32" y="365" fill="#c5e4ed" font-family="Arial,sans-serif" font-size="12" letter-spacing="2">SYSTEM TELEMETRY · INTRUSION DETECTION</text></svg>